<?xml version="1.0" encoding="UTF-8" standalone="no"?>
<!DOCTYPE svg PUBLIC "-//W3C//DTD SVG 1.1//EN" "http://www.w3.org/Graphics/SVG/1.1/DTD/svg11.dtd">
<svg width="100%" height="100%" viewBox="0 0 1045 160" version="1.1" xmlns="http://www.w3.org/2000/svg" xmlns:xlink="http://www.w3.org/1999/xlink" xml:space="preserve" xmlns:serif="http://www.serif.com/" style="fill-rule:evenodd;clip-rule:evenodd;stroke-linejoin:round;stroke-miterlimit:2;">
    <g transform="matrix(1,0,0,1,0,-316)">
        <g id="Mesa-de-trabajo2" serif:id="Mesa de trabajo2" transform="matrix(1,0,0,1,7.98615,-0.190491)">
            <rect x="-7.986" y="316.19" width="1044.51" height="159.427" style="fill:none;"/>
            <g transform="matrix(1,7.22801e-18,-7.22801e-18,1,-893.791,395.83)">
                <g transform="matrix(200,0,0,200,900.662,70.3736)">
                    <path d="M0.412,-0.524C0.473,-0.524 0.52,-0.508 0.553,-0.477C0.586,-0.446 0.603,-0.393 0.603,-0.319L0.603,-0L0.452,-0L0.452,-0.3C0.452,-0.333 0.445,-0.358 0.432,-0.375C0.418,-0.391 0.395,-0.399 0.363,-0.399C0.31,-0.399 0.261,-0.383 0.216,-0.351L0.216,-0L0.065,-0L0.065,-0.513L0.187,-0.513L0.203,-0.459C0.269,-0.502 0.339,-0.524 0.412,-0.524Z" style="fill:white;fill-rule:nonzero;"/>
                </g>
                <g transform="matrix(200,0,0,200,1034.26,70.3736)">
                    <path d="M0.225,-0.586L0.056,-0.586L0.056,-0.715L0.225,-0.715L0.225,-0.586ZM0.216,-0L0.065,-0L0.065,-0.513L0.216,-0.513L0.216,-0Z" style="fill:white;fill-rule:nonzero;"/>
                </g>
                <g transform="matrix(200,0,0,200,1090.46,70.3736)">
                    <path d="M0.288,-0.524C0.363,-0.524 0.426,-0.513 0.479,-0.491L0.479,-0.371C0.413,-0.394 0.353,-0.405 0.298,-0.405C0.22,-0.405 0.181,-0.393 0.181,-0.368C0.181,-0.358 0.185,-0.351 0.192,-0.348C0.199,-0.344 0.216,-0.339 0.242,-0.333C0.249,-0.332 0.254,-0.331 0.257,-0.33L0.361,-0.307C0.414,-0.295 0.452,-0.277 0.476,-0.253C0.5,-0.228 0.512,-0.196 0.512,-0.157C0.512,-0.105 0.491,-0.064 0.449,-0.034C0.407,-0.003 0.341,0.012 0.25,0.012C0.219,0.012 0.183,0.009 0.142,0.002C0.1,-0.006 0.068,-0.013 0.045,-0.021L0.045,-0.145C0.115,-0.122 0.182,-0.11 0.246,-0.11C0.291,-0.11 0.321,-0.113 0.338,-0.12C0.354,-0.127 0.362,-0.137 0.362,-0.152C0.362,-0.162 0.357,-0.17 0.347,-0.177C0.337,-0.184 0.316,-0.19 0.284,-0.197L0.172,-0.22C0.12,-0.231 0.084,-0.249 0.065,-0.274C0.045,-0.299 0.035,-0.33 0.035,-0.368C0.035,-0.421 0.058,-0.461 0.103,-0.486C0.148,-0.511 0.21,-0.524 0.288,-0.524Z" style="fill:white;fill-rule:nonzero;"/>
                </g>
                <g transform="matrix(200,0,0,200,1199.86,70.3736)">
                    <path d="M0.288,-0.524C0.363,-0.524 0.426,-0.513 0.479,-0.491L0.479,-0.371C0.413,-0.394 0.353,-0.405 0.298,-0.405C0.22,-0.405 0.181,-0.393 0.181,-0.368C0.181,-0.358 0.185,-0.351 0.192,-0.348C0.199,-0.344 0.216,-0.339 0.242,-0.333C0.249,-0.332 0.254,-0.331 0.257,-0.33L0.361,-0.307C0.414,-0.295 0.452,-0.277 0.476,-0.253C0.5,-0.228 0.512,-0.196 0.512,-0.157C0.512,-0.105 0.491,-0.064 0.449,-0.034C0.407,-0.003 0.341,0.012 0.25,0.012C0.219,0.012 0.183,0.009 0.142,0.002C0.1,-0.006 0.068,-0.013 0.045,-0.021L0.045,-0.145C0.115,-0.122 0.182,-0.11 0.246,-0.11C0.291,-0.11 0.321,-0.113 0.338,-0.12C0.354,-0.127 0.362,-0.137 0.362,-0.152C0.362,-0.162 0.357,-0.17 0.347,-0.177C0.337,-0.184 0.316,-0.19 0.284,-0.197L0.172,-0.22C0.12,-0.231 0.084,-0.249 0.065,-0.274C0.045,-0.299 0.035,-0.33 0.035,-0.368C0.035,-0.421 0.058,-0.461 0.103,-0.486C0.148,-0.511 0.21,-0.524 0.288,-0.524Z" style="fill:white;fill-rule:nonzero;"/>
                </g>
                <g transform="matrix(200,0,0,200,1309.26,70.3736)">
                    <path d="M0.359,-0.524C0.438,-0.524 0.504,-0.502 0.557,-0.457C0.61,-0.412 0.636,-0.347 0.636,-0.26C0.636,-0.177 0.609,-0.111 0.556,-0.062C0.503,-0.012 0.439,0.012 0.365,0.012C0.302,0.012 0.243,-0.004 0.187,-0.036L0.176,-0L0.065,-0L0.065,-0.691L0.216,-0.691L0.216,-0.49C0.264,-0.513 0.312,-0.524 0.359,-0.524ZM0.337,-0.112C0.378,-0.112 0.412,-0.125 0.439,-0.15C0.466,-0.175 0.479,-0.212 0.479,-0.26C0.479,-0.305 0.467,-0.34 0.442,-0.364C0.417,-0.388 0.383,-0.4 0.341,-0.4C0.296,-0.4 0.254,-0.389 0.216,-0.368L0.216,-0.146C0.251,-0.123 0.292,-0.112 0.337,-0.112Z" style="fill:white;fill-rule:nonzero;"/>
                </g>
                <g transform="matrix(200,0,0,200,1576.01,70.3736)">
                    <path d="M0.298,-0.524C0.475,-0.524 0.564,-0.453 0.564,-0.312L0.564,-0L0.445,-0L0.431,-0.045C0.374,-0.007 0.312,0.012 0.245,0.012C0.182,0.012 0.132,-0.004 0.095,-0.037C0.058,-0.069 0.04,-0.11 0.04,-0.159C0.04,-0.197 0.051,-0.229 0.075,-0.254C0.097,-0.278 0.124,-0.296 0.155,-0.305C0.186,-0.314 0.219,-0.318 0.255,-0.318C0.311,-0.318 0.364,-0.309 0.413,-0.291L0.413,-0.311C0.413,-0.374 0.36,-0.406 0.253,-0.406C0.211,-0.406 0.154,-0.396 0.082,-0.376L0.082,-0.499C0.138,-0.516 0.21,-0.524 0.298,-0.524ZM0.196,-0.156C0.196,-0.139 0.204,-0.125 0.221,-0.115C0.237,-0.104 0.261,-0.099 0.292,-0.099C0.325,-0.099 0.365,-0.111 0.413,-0.134L0.413,-0.196C0.382,-0.211 0.341,-0.218 0.289,-0.218C0.227,-0.218 0.196,-0.197 0.196,-0.156Z" style="fill:white;fill-rule:nonzero;"/>
                </g>
                <g transform="matrix(200,0,0,200,1701.81,70.3736)">
                    <path d="M0.187,-0.513L0.204,-0.457C0.267,-0.5 0.335,-0.523 0.408,-0.524L0.408,-0.38C0.34,-0.381 0.276,-0.364 0.216,-0.329L0.216,-0L0.065,-0L0.065,-0.513L0.187,-0.513Z" style="fill:white;fill-rule:nonzero;"/>
                </g>
                <g transform="matrix(200,0,0,200,1782.21,70.3736)">
                    <path d="M0.606,-0.691L0.606,-0L0.494,-0L0.48,-0.044C0.426,-0.008 0.368,0.01 0.306,0.01C0.229,0.01 0.165,-0.014 0.113,-0.063C0.061,-0.112 0.035,-0.177 0.035,-0.259C0.035,-0.346 0.061,-0.412 0.114,-0.457C0.166,-0.502 0.232,-0.524 0.312,-0.524C0.359,-0.524 0.407,-0.512 0.455,-0.488L0.455,-0.691L0.606,-0.691ZM0.192,-0.26C0.192,-0.211 0.205,-0.175 0.232,-0.151C0.259,-0.126 0.293,-0.114 0.334,-0.114C0.376,-0.114 0.416,-0.127 0.455,-0.153L0.455,-0.363C0.415,-0.388 0.373,-0.4 0.33,-0.4C0.288,-0.4 0.255,-0.388 0.23,-0.364C0.205,-0.34 0.192,-0.305 0.192,-0.26Z" style="fill:white;fill-rule:nonzero;"/>
                </g>
            </g>
            <g transform="matrix(4.16667,0,0,4.16667,-98.5351,8.01157)">
                <path d="M171.661,84.206C178.739,84.206 184.511,89.978 184.511,97.056C184.511,104.133 178.739,109.906 171.661,109.906C164.584,109.906 158.811,104.133 158.811,97.056C158.811,89.978 164.584,84.206 171.661,84.206Z" style="fill:rgb(237,28,36);"/>
            </g>
        </g>
    </g>
</svg>
